<?xml version="1.0" encoding="UTF-8" standalone="no"?>
<svg
   xmlns:dc="http://purl.org/dc/elements/1.1/"
   xmlns:cc="http://creativecommons.org/ns#"
   xmlns:rdf="http://www.w3.org/1999/02/22-rdf-syntax-ns#"
   xmlns:svg="http://www.w3.org/2000/svg"
   xmlns="http://www.w3.org/2000/svg"
   viewBox="0 0 215 66.666664"
   height="66.666664"
   width="215"
   xml:space="preserve"
   id="svg2"
   version="1.1"><metadata
     id="metadata8"><rdf:RDF><cc:Work
         rdf:about=""><dc:format>image/svg+xml</dc:format><dc:type
           rdf:resource="http://purl.org/dc/dcmitype/StillImage" /></cc:Work></rdf:RDF></metadata><defs
     id="defs6"><clipPath
       id="clipPath18"
       clipPathUnits="userSpaceOnUse"><path
         id="path16"
         d="M 0,50 H 161.25 V 0 H 0 Z" /></clipPath><clipPath
       id="clipPath158"
       clipPathUnits="userSpaceOnUse"><path
         id="path156"
         d="M 2,48 H 26.2482 V 4.53662 L 2,4.53662 Z" /></clipPath><clipPath
       id="clipPath174"
       clipPathUnits="userSpaceOnUse"><path
         id="path172"
         d="m 18.861,12.2187 h 4.9091 V 8.64223 H 18.861 Z" /></clipPath></defs><g
     transform="matrix(1.3333333,0,0,-1.3333333,0,66.666667)"
     id="g10"><g
       id="g12"><g
         clip-path="url(#clipPath18)"
         id="g14"><g
           transform="translate(6.9057,35.3351)"
           id="g20"><path
             id="path22"
             style="fill:#f2b890;fill-opacity:1;fill-rule:nonzero;stroke:none"
             d="m 0,0 v -5.187 c 0,0 -0.257,-0.13 -0.652,-0.282 -0.331,-0.131 -0.761,-0.274 -1.217,-0.357 -1.048,-0.208 -2.235,-0.13 -2.683,1.061 -0.765,2.035 -0.5,4 2.93,4.6 C -1.143,-0.083 -0.604,-0.026 0,0" /></g><g
           transform="translate(6.9057,35.3351)"
           id="g24"><path
             id="path26"
             style="fill:none;stroke:#000000;stroke-width:0.435;stroke-linecap:butt;stroke-linejoin:miter;stroke-miterlimit:10;stroke-dasharray:none;stroke-opacity:1"
             d="m 0,0 v -5.187 c 0,0 -0.257,-0.13 -0.652,-0.282 -0.331,-0.131 -0.761,-0.274 -1.217,-0.357 -1.048,-0.208 -2.235,-0.13 -2.683,1.061 -0.765,2.035 -0.5,4 2.93,4.6 C -1.143,-0.083 -0.604,-0.026 0,0 Z" /></g><g
           transform="translate(32.6831,37.9305)"
           id="g28"><path
             id="path30"
             style="fill:#f5d1b9;fill-opacity:1;fill-rule:nonzero;stroke:none"
             d="m 0,0 c 0,0 1.181,1.362 2.73,0.846 1.549,-0.517 3.589,-2.257 1.292,-5.381 0,0 -0.423,-1.222 -3.14,-0.19 z" /></g><g
           transform="translate(32.6831,37.9305)"
           id="g32"><path
             id="path34"
             style="fill:none;stroke:#000000;stroke-width:0.435;stroke-linecap:butt;stroke-linejoin:miter;stroke-miterlimit:10;stroke-dasharray:none;stroke-opacity:1"
             d="m 0,0 c 0,0 1.181,1.362 2.73,0.846 1.549,-0.517 3.589,-2.257 1.292,-5.381 0,0 -0.423,-1.222 -3.14,-0.19 z" /></g><g
           transform="translate(33.7478,8.6408)"
           id="g36"><path
             id="path38"
             style="fill:#ffffff;fill-opacity:1;fill-rule:nonzero;stroke:none"
             d="m 0,0 c 0,0 0.017,-3.787 -0.904,-4.443 -0.705,-0.505 -2.857,0.035 -4.013,0.378 -0.452,0.13 -0.752,0.235 -0.752,0.235 l -2.639,-0.096 -0.013,-0.004 -0.248,-0.009 -2.935,-0.109 h -0.03 l -3.865,-1.36 c 0,0 -0.022,-0.013 -0.065,-0.04 -0.4,-0.234 -2.6,-1.499 -3.305,-1.1 -0.491,0.279 -0.717,1.422 -0.826,2.444 -0.095,0.93 -0.091,1.761 -0.091,1.761 h 0.009 l 3.791,0.543 14.708,2.1 z" /></g><g
           transform="translate(33.7478,8.6408)"
           id="g40"><path
             id="path42"
             style="fill:none;stroke:#000000;stroke-width:0.435;stroke-linecap:butt;stroke-linejoin:miter;stroke-miterlimit:10;stroke-dasharray:none;stroke-opacity:1"
             d="m 0,0 c 0,0 0.017,-3.787 -0.904,-4.443 -0.705,-0.505 -2.857,0.035 -4.013,0.378 -0.452,0.13 -0.752,0.235 -0.752,0.235 l -2.639,-0.096 -0.013,-0.004 -0.248,-0.009 -2.935,-0.109 h -0.03 l -3.865,-1.36 c 0,0 -0.022,-0.013 -0.065,-0.04 -0.4,-0.234 -2.6,-1.499 -3.305,-1.1 -0.491,0.279 -0.717,1.422 -0.826,2.444 -0.095,0.93 -0.091,1.761 -0.091,1.761 h 0.009 l 3.791,0.543 14.708,2.1 z" /></g><g
           transform="translate(17.7508,6.142)"
           id="g44"><path
             id="path46"
             style="fill:#ec5153;fill-opacity:1;fill-rule:nonzero;stroke:none"
             d="m 0,0 c 0,0 0.326,-3.369 1.1,-4.157 0,0 2.405,0.869 3.519,2.078 l 3.07,0.65 c 0,0 2.214,-1.696 2.941,-1.696 0,0 0.648,1.246 0.606,3.748 l -5.617,0.41 z" /></g><g
           transform="translate(17.7508,6.142)"
           id="g48"><path
             id="path50"
             style="fill:none;stroke:#000000;stroke-width:0.435;stroke-linecap:butt;stroke-linejoin:miter;stroke-miterlimit:10;stroke-dasharray:none;stroke-opacity:1"
             d="m 0,0 c 0,0 0.326,-3.369 1.1,-4.157 0,0 2.405,0.869 3.519,2.078 l 3.07,0.65 c 0,0 2.214,-1.696 2.941,-1.696 0,0 0.648,1.246 0.606,3.748 l -5.617,0.41 z" /></g><g
           transform="translate(22.214,5.9326)"
           id="g52"><path
             id="path54"
             style="fill:#ec5153;fill-opacity:1;fill-rule:nonzero;stroke:none"
             d="m 0,0 c 0,0 -0.578,-2.318 1.542,-2.155 0,0 1.67,-0.132 1.796,2.515 z" /></g><g
           transform="translate(22.214,5.9326)"
           id="g56"><path
             id="path58"
             style="fill:none;stroke:#000000;stroke-width:0.435;stroke-linecap:butt;stroke-linejoin:miter;stroke-miterlimit:10;stroke-dasharray:none;stroke-opacity:1"
             d="m 0,0 c 0,0 -0.578,-2.318 1.542,-2.155 0,0 1.67,-0.132 1.796,2.515 z" /></g><g
           transform="translate(33.7478,8.6408)"
           id="g60"><path
             id="path62"
             style="fill:#f5d1b9;fill-opacity:1;fill-rule:nonzero;stroke:none"
             d="m 0,0 c -1.204,-0.804 -2.761,-1.448 -4.761,-1.874 v -0.004 c -1.021,-0.218 -2.165,-0.378 -3.434,-0.47 -0.405,-0.03 -0.826,-0.052 -1.261,-0.069 0,0 -0.6,-0.118 -1.57,-0.235 -0.065,-0.009 -0.134,-0.013 -0.204,-0.022 -0.743,-0.087 -1.674,-0.165 -2.7,-0.195 h -0.004 c -0.648,-0.022 -1.33,-0.022 -2.026,0.013 -1.23,0.056 -2.509,0.204 -3.717,0.513 -1.752,0.447 -3.352,1.23 -4.417,2.534 -1.926,2.361 -2.557,9.739 -2.709,16.517 -0.022,1.039 -0.035,2.065 -0.039,3.056 -0.009,1.987 0.022,3.835 0.056,5.383 0.018,0.669 0.035,1.286 0.048,1.83 0.057,1.635 0.109,2.635 0.109,2.635 0.065,0.104 0.13,0.208 0.2,0.308 l 3.93,6.065 8.839,2.465 2.7,-0.826 8.169,-2.508 c 0,0 0.504,-1.666 1.204,-4.048 h 0.004 c 0.161,-0.556 0.335,-1.152 0.518,-1.778 0,-0.004 0.004,-0.004 0,-0.009 0.013,-0.035 0.022,-0.065 0.03,-0.1 0.139,-0.474 0.283,-0.965 0.426,-1.465 C -0.3,26.638 0.022,25.512 0.33,24.39 0.704,23.055 1.065,21.725 1.387,20.499 1.574,19.777 1.752,19.086 1.904,18.451 2.126,17.543 2.304,16.747 2.426,16.112 3.187,12.104 6.065,4.052 0,0" /></g><g
           transform="translate(33.7478,8.6408)"
           id="g64"><path
             id="path66"
             style="fill:none;stroke:#000000;stroke-width:0.435;stroke-linecap:butt;stroke-linejoin:miter;stroke-miterlimit:10;stroke-dasharray:none;stroke-opacity:1"
             d="m 0,0 c -1.204,-0.804 -2.761,-1.448 -4.761,-1.874 v -0.004 c -1.021,-0.218 -2.165,-0.378 -3.434,-0.47 -0.405,-0.03 -0.826,-0.052 -1.261,-0.069 0,0 -0.6,-0.118 -1.57,-0.235 -0.065,-0.009 -0.134,-0.013 -0.204,-0.022 -0.743,-0.087 -1.674,-0.165 -2.7,-0.195 h -0.004 c -0.648,-0.022 -1.33,-0.022 -2.026,0.013 -1.23,0.056 -2.509,0.204 -3.717,0.513 -1.752,0.447 -3.352,1.23 -4.417,2.534 -1.926,2.361 -2.557,9.739 -2.709,16.517 -0.022,1.039 -0.035,2.065 -0.039,3.056 -0.009,1.987 0.022,3.835 0.056,5.383 0.018,0.669 0.035,1.286 0.048,1.83 0.057,1.635 0.109,2.635 0.109,2.635 0.065,0.104 0.13,0.208 0.2,0.308 l 3.93,6.065 8.839,2.465 2.7,-0.826 8.169,-2.508 c 0,0 0.504,-1.666 1.204,-4.048 h 0.004 c 0.161,-0.556 0.335,-1.152 0.518,-1.778 0,-0.004 0.004,-0.004 0,-0.009 0.013,-0.035 0.022,-0.065 0.03,-0.1 0.139,-0.474 0.283,-0.965 0.426,-1.465 C -0.3,26.638 0.022,25.512 0.33,24.39 0.704,23.055 1.065,21.725 1.387,20.499 1.574,19.777 1.752,19.086 1.904,18.451 2.126,17.543 2.304,16.747 2.426,16.112 3.187,12.104 6.065,4.052 0,0 Z" /></g><g
           transform="translate(33.5652,38.6132)"
           id="g68"><path
             id="path70"
             style="fill:#716558;fill-opacity:1;fill-rule:nonzero;stroke:none"
             d="M 0,0 C 0,0 -0.643,0.53 -1.4,1.096 H -1.404 C -2.343,1.8 -3.456,2.552 -3.695,2.391 -4.13,2.1 -3.043,0.652 -3.043,0.652 c 0,0 -3.261,2.535 -3.913,2.1 -0.635,-0.422 1.404,-2.217 1.517,-2.313 -0.196,0.113 -6.721,3.817 -12.825,3.626 -3.048,-0.096 -5.987,-1.156 -7.983,-4.117 -0.069,-0.1 -0.134,-0.204 -0.2,-0.309 0,0 -2.247,8.113 11.304,9.634 0,0 3.891,0.483 7.696,-0.543 1.517,-0.404 3.021,-1.052 4.26,-2.065 0,0 2.752,-4.709 3.187,-6.665" /></g><g
           transform="translate(33.5652,38.6132)"
           id="g72"><path
             id="path74"
             style="fill:none;stroke:#000000;stroke-width:0.435;stroke-linecap:round;stroke-linejoin:round;stroke-miterlimit:10;stroke-dasharray:none;stroke-opacity:1"
             d="M 0,0 C 0,0 -0.643,0.53 -1.4,1.096 H -1.404 C -2.343,1.8 -3.456,2.552 -3.695,2.391 -4.13,2.1 -3.043,0.652 -3.043,0.652 c 0,0 -3.261,2.535 -3.913,2.1 -0.635,-0.422 1.404,-2.217 1.517,-2.313 -0.196,0.113 -6.721,3.817 -12.825,3.626 -3.048,-0.096 -5.987,-1.156 -7.983,-4.117 -0.069,-0.1 -0.134,-0.204 -0.2,-0.309 0,0 -2.247,8.113 11.304,9.634 0,0 3.891,0.483 7.696,-0.543 1.517,-0.404 3.021,-1.052 4.26,-2.065 0,0 2.752,-4.709 3.187,-6.665 z" /></g><g
           transform="translate(18.6403,34.4841)"
           id="g76"><path
             id="path78"
             style="fill:#414141;fill-opacity:1;fill-rule:nonzero;stroke:none"
             d="M 0,0 C 0,0 2.281,1.376 4.889,0.397 L 5.65,-0.206 4.853,-1.269 c 0,0 -3.297,0.978 -4.529,-0.471 l -0.616,0.579 z" /></g><g
           transform="translate(18.6403,34.4841)"
           id="g80"><path
             id="path82"
             style="fill:none;stroke:#000000;stroke-width:0.435;stroke-linecap:butt;stroke-linejoin:miter;stroke-miterlimit:10;stroke-dasharray:none;stroke-opacity:1"
             d="M 0,0 C 0,0 2.281,1.376 4.889,0.397 L 5.65,-0.206 4.853,-1.269 c 0,0 -3.297,0.978 -4.529,-0.471 l -0.616,0.579 z" /></g><g
           transform="translate(17.4443,31.5135)"
           id="g84"><path
             id="path86"
             style="fill:#414141;fill-opacity:1;fill-rule:nonzero;stroke:none"
             d="m 0,0 c -1.017,-3.282 -2.656,-5.169 -5.495,-5.395 -0.8,-0.066 -1.692,0.004 -2.696,0.213 0,0 -1.3,0.278 -2.348,2.073 -0.234,0.405 -0.456,0.887 -0.652,1.461 -0.065,0.2 -0.126,0.409 -0.187,0.631 -0.469,1.769 -0.004,2.73 0.839,3.256 0.018,0.013 0.035,0.026 0.057,0.035 0.917,0.539 2.252,0.595 3.343,0.622 0,0 0.652,0.03 1.457,0.039 0.76,0.013 1.66,0.013 2.273,-0.039 C -2.139,2.787 0.991,3.2 0,0 M 1.783,1.478 C 1.735,1.939 1.652,2.335 1.556,2.643 1.513,2.791 1.435,2.922 1.33,3.043 0.27,4.317 -3.587,4.348 -3.587,4.348 -4.295,4.378 -4.961,4.395 -5.578,4.4 -7.682,4.426 -9.26,4.308 -10.434,4.104 -11.147,3.978 -11.712,3.826 -12.16,3.656 c -2.1,-0.808 -1.652,-2.03 -1.609,-2.46 0.074,-0.726 1.052,-1.053 1.052,-1.053 0,0 0.087,0.374 0.309,-2.147 0.026,-0.305 0.056,-0.648 0.087,-1.039 0.104,-1.326 0.774,-2.409 1.822,-3.122 1.273,-0.869 3.108,-1.204 5.147,-0.791 0.909,0.182 1.857,0.517 2.813,1.013 3.991,2.069 4.535,5.369 4.322,7.421" /></g><g
           transform="translate(17.4443,31.5135)"
           id="g88"><path
             id="path90"
             style="fill:none;stroke:#000000;stroke-width:0.435;stroke-linecap:butt;stroke-linejoin:miter;stroke-miterlimit:10;stroke-dasharray:none;stroke-opacity:1"
             d="m 0,0 c -1.017,-3.282 -2.656,-5.169 -5.495,-5.395 -0.8,-0.066 -1.692,0.004 -2.696,0.213 0,0 -1.3,0.278 -2.348,2.073 -0.234,0.405 -0.456,0.887 -0.652,1.461 -0.065,0.2 -0.126,0.409 -0.187,0.631 -0.469,1.769 -0.004,2.73 0.839,3.256 0.018,0.013 0.035,0.026 0.057,0.035 0.917,0.539 2.252,0.595 3.343,0.622 0,0 0.652,0.03 1.457,0.039 0.76,0.013 1.66,0.013 2.273,-0.039 C -2.139,2.787 0.991,3.2 0,0 Z M 1.783,1.478 C 1.735,1.939 1.652,2.335 1.556,2.643 1.513,2.791 1.435,2.922 1.33,3.043 0.27,4.317 -3.587,4.348 -3.587,4.348 -4.295,4.378 -4.961,4.395 -5.578,4.4 -7.682,4.426 -9.26,4.308 -10.434,4.104 -11.147,3.978 -11.712,3.826 -12.16,3.656 c -2.1,-0.808 -1.652,-2.03 -1.609,-2.46 0.074,-0.726 1.052,-1.053 1.052,-1.053 0,0 0.087,0.374 0.309,-2.147 0.026,-0.305 0.056,-0.648 0.087,-1.039 0.104,-1.326 0.774,-2.409 1.822,-3.122 1.273,-0.869 3.108,-1.204 5.147,-0.791 0.909,0.182 1.857,0.517 2.813,1.013 3.991,2.069 4.535,5.369 4.322,7.421 z" /></g><g
           transform="translate(36.6999,33.3874)"
           id="g92"><path
             id="path94"
             style="fill:#414141;fill-opacity:1;fill-rule:nonzero;stroke:none"
             d="m 0,0 c -0.004,-0.122 -0.013,-0.243 -0.026,-0.374 -0.217,-2.048 -0.926,-3.226 -1.539,-3.874 -0.522,-0.56 -0.97,-0.73 -0.97,-0.73 -4.369,-1.63 -6.956,-0.091 -8.886,3.865 -1.474,3.013 1.682,3.082 2.921,3.382 1.235,0.305 3.687,0.574 3.687,0.574 0.344,0.044 0.713,0.092 1.091,0.118 0.053,0.004 0.105,0.008 0.161,0.008 C -1.752,3.087 0.135,2.752 0,0.004 Z m 1.122,0.978 c 0,0 0.917,0.47 0.878,1.2 -0.022,0.404 0.196,1.552 -1.574,2.083 -0.883,0.269 -2.261,0.382 -4.413,0.174 -0.004,0.004 -0.004,0.004 -0.008,0 -1.24,-0.118 -2.739,-0.34 -4.548,-0.705 0,0 -4.091,-0.665 -4.743,-2.195 -0.039,-0.087 -0.066,-0.179 -0.079,-0.274 -0.052,-0.361 -0.073,-0.839 -0.034,-1.383 0.047,-0.621 0.182,-1.326 0.461,-2.052 v -0.009 c 0.643,-1.678 2.052,-3.443 4.934,-4.412 2.761,-0.931 5.256,-0.683 6.956,0.3 1.513,0.878 2.396,2.334 2.265,4.06 C 0.943,1.426 1.122,0.978 1.122,0.978" /></g><g
           transform="translate(36.6999,33.3874)"
           id="g96"><path
             id="path98"
             style="fill:none;stroke:#000000;stroke-width:0.435;stroke-linecap:butt;stroke-linejoin:miter;stroke-miterlimit:10;stroke-dasharray:none;stroke-opacity:1"
             d="m 0,0 c -0.004,-0.122 -0.013,-0.243 -0.026,-0.374 -0.217,-2.048 -0.926,-3.226 -1.539,-3.874 -0.522,-0.56 -0.97,-0.73 -0.97,-0.73 -4.369,-1.63 -6.956,-0.091 -8.886,3.865 -1.474,3.013 1.682,3.082 2.921,3.382 1.235,0.305 3.687,0.574 3.687,0.574 0.344,0.044 0.713,0.092 1.091,0.118 0.053,0.004 0.105,0.008 0.161,0.008 C -1.752,3.087 0.135,2.752 0,0.004 Z m 1.122,0.978 c 0,0 0.917,0.47 0.878,1.2 -0.022,0.404 0.196,1.552 -1.574,2.083 -0.883,0.269 -2.261,0.382 -4.413,0.174 -0.004,0.004 -0.004,0.004 -0.008,0 -1.24,-0.118 -2.739,-0.34 -4.548,-0.705 0,0 -4.091,-0.665 -4.743,-2.195 -0.039,-0.087 -0.066,-0.179 -0.079,-0.274 -0.052,-0.361 -0.073,-0.839 -0.034,-1.383 0.047,-0.621 0.182,-1.326 0.461,-2.052 v -0.009 c 0.643,-1.678 2.052,-3.443 4.934,-4.412 2.761,-0.931 5.256,-0.683 6.956,0.3 1.513,0.878 2.396,2.334 2.265,4.06 C 0.943,1.426 1.122,0.978 1.122,0.978 Z" /></g><g
           transform="translate(15.5589,29.9904)"
           id="g100"><path
             id="path102"
             style="fill:#ffffff;fill-opacity:1;fill-rule:nonzero;stroke:none"
             d="m 0,0 c 0,-1.381 -1.217,-2.5 -2.717,-2.5 -1.501,0 -2.718,1.119 -2.718,2.5 0,1.381 1.217,2.5 2.718,2.5 C -1.217,2.5 0,1.381 0,0" /></g><g
           transform="translate(15.5589,29.9904)"
           id="g104"><path
             id="path106"
             style="fill:none;stroke:#000000;stroke-width:0.417;stroke-linecap:butt;stroke-linejoin:miter;stroke-miterlimit:10;stroke-dasharray:none;stroke-opacity:1"
             d="m 0,0 c 0,-1.381 -1.217,-2.5 -2.717,-2.5 -1.501,0 -2.718,1.119 -2.718,2.5 0,1.381 1.217,2.5 2.718,2.5 C -1.217,2.5 0,1.381 0,0 Z" /></g><g
           transform="translate(9.6715,32.3273)"
           id="g108"><path
             id="path110"
             style="fill:none;stroke:#000000;stroke-width:0.435;stroke-linecap:round;stroke-linejoin:miter;stroke-miterlimit:10;stroke-dasharray:none;stroke-opacity:1"
             d="M 0,0 C 0,0 2.627,2.047 5.308,0.634" /></g><g
           transform="translate(13.5252,30.0694)"
           id="g112"><path
             id="path114"
             style="fill:#221f1f;fill-opacity:1;fill-rule:nonzero;stroke:none"
             d="m 0,0 c 0.039,-0.318 -0.22,-0.611 -0.577,-0.655 -0.358,-0.043 -0.679,0.179 -0.718,0.497 -0.038,0.318 0.22,0.611 0.577,0.655 C -0.36,0.54 -0.039,0.318 0,0" /></g><g
           transform="translate(13.5252,30.0694)"
           id="g116"><path
             id="path118"
             style="fill:none;stroke:#000000;stroke-width:0.092;stroke-linecap:butt;stroke-linejoin:miter;stroke-miterlimit:10;stroke-dasharray:none;stroke-opacity:1"
             d="m 0,0 c 0.039,-0.318 -0.22,-0.611 -0.577,-0.655 -0.358,-0.043 -0.679,0.179 -0.718,0.497 -0.038,0.318 0.22,0.611 0.577,0.655 C -0.36,0.54 -0.039,0.318 0,0 Z" /></g><g
           transform="translate(32.8287,31.2737)"
           id="g120"><path
             id="path122"
             style="fill:#ffffff;fill-opacity:1;fill-rule:nonzero;stroke:none"
             d="m 0,0 c -0.148,-1.373 -1.477,-2.355 -2.969,-2.195 -1.492,0.161 -2.582,1.404 -2.434,2.777 0.148,1.373 1.477,2.355 2.969,2.194 C -0.942,2.616 0.148,1.373 0,0" /></g><g
           transform="translate(32.8287,31.2737)"
           id="g124"><path
             id="path126"
             style="fill:none;stroke:#000000;stroke-width:0.417;stroke-linecap:butt;stroke-linejoin:miter;stroke-miterlimit:10;stroke-dasharray:none;stroke-opacity:1"
             d="m 0,0 c -0.148,-1.373 -1.477,-2.355 -2.969,-2.195 -1.492,0.161 -2.582,1.404 -2.434,2.777 0.148,1.373 1.477,2.355 2.969,2.194 C -0.942,2.616 0.148,1.373 0,0 Z" /></g><g
           transform="translate(27.2254,34.2275)"
           id="g128"><path
             id="path130"
             style="fill:none;stroke:#000000;stroke-width:0.435;stroke-linecap:round;stroke-linejoin:miter;stroke-miterlimit:10;stroke-dasharray:none;stroke-opacity:1"
             d="M 0,0 C 0,0 2.831,1.754 5.345,0.062" /></g><g
           transform="translate(30.8152,31.5699)"
           id="g132"><path
             id="path134"
             style="fill:#221f1f;fill-opacity:1;fill-rule:nonzero;stroke:none"
             d="m 0,0 c 0.005,-0.32 -0.284,-0.584 -0.644,-0.589 -0.36,-0.005 -0.656,0.25 -0.66,0.571 -0.005,0.32 0.284,0.584 0.644,0.589 C -0.3,0.576 -0.005,0.32 0,0" /></g><g
           transform="translate(30.8152,31.5699)"
           id="g136"><path
             id="path138"
             style="fill:none;stroke:#000000;stroke-width:0.092;stroke-linecap:butt;stroke-linejoin:miter;stroke-miterlimit:10;stroke-dasharray:none;stroke-opacity:1"
             d="m 0,0 c 0.005,-0.32 -0.284,-0.584 -0.644,-0.589 -0.36,-0.005 -0.656,0.25 -0.66,0.571 -0.005,0.32 0.284,0.584 0.644,0.589 C -0.3,0.576 -0.005,0.32 0,0 Z" /></g><g
           transform="translate(23.7604,31.2133)"
           id="g140"><path
             id="path142"
             style="fill:none;stroke:#000000;stroke-width:0.435;stroke-linecap:round;stroke-linejoin:round;stroke-miterlimit:10;stroke-dasharray:none;stroke-opacity:1"
             d="m 0,0 1.134,-9.502 -5.628,-1.304" /></g><g
           transform="translate(15.2509,18.8316)"
           id="g144"><path
             id="path146"
             style="fill:none;stroke:#000000;stroke-width:0.435;stroke-linecap:round;stroke-linejoin:round;stroke-miterlimit:10;stroke-dasharray:none;stroke-opacity:1"
             d="M 0,0 C 0,0 4.113,-5.543 11.975,-2.5" /></g><g
           transform="translate(18.8513,12.4596)"
           id="g148"><path
             id="path150"
             style="fill:none;stroke:#000000;stroke-width:0.435;stroke-linecap:round;stroke-linejoin:round;stroke-miterlimit:10;stroke-dasharray:none;stroke-opacity:1"
             d="m 0,0 c 0,0 0,-3.084 1.929,-3.655 1.752,-0.518 2.867,0.231 3.166,1.828 0,0 0.869,-2.059 2.35,-1.665 1.481,0.394 2.378,1.101 1.997,4.035" /></g><g
           id="g152"><g
             id="g154" /><g
             id="g166"><g
               style="opacity:0.19999701"
               id="g164"
               clip-path="url(#clipPath158)"><g
                 id="g162"
                 transform="translate(11.7141,33.2874)"><path
                   id="path160"
                   style="fill:#3b2416;fill-opacity:1;fill-rule:nonzero;stroke:none"
                   d="m 0,0 c -0.009,-0.335 -0.013,-0.674 -0.013,-1.026 -0.013,-1.426 0.035,-2.978 0.135,-4.591 0.03,-0.509 0.069,-1.026 0.113,-1.552 0.043,-0.518 0.091,-1.035 0.143,-1.561 0.757,-7.234 2.609,-14.878 5.77,-17.716 0.234,-0.214 0.473,-0.396 0.721,-0.548 0.392,-0.248 0.8,-0.426 1.231,-0.522 l -1.966,-0.43 -3.695,-0.805 c -0.096,0.931 -0.091,1.761 -0.091,1.761 h 0.008 c -1.752,0.448 -3.352,1.23 -4.417,2.535 -1.926,2.36 -2.556,9.738 -2.708,16.516 -1.048,0.713 -1.718,1.796 -1.822,3.122 -0.03,0.391 -0.061,0.735 -0.087,1.039 -1.048,-0.209 -2.235,-0.131 -2.682,1.061 -0.766,2.034 -0.5,4 2.93,4.6 0.448,0.169 1.013,0.321 1.726,0.447 0.056,1.635 0.109,2.635 0.109,2.635 0,0 -2.248,8.113 11.303,9.634 0,0 3.891,0.483 7.696,-0.543 l 0.13,-0.252 c 0,0 -1.465,-0.235 -3.461,-0.826 C 8.795,12.304 5.826,11.165 3.587,9.391 2.1,8.217 0.935,6.756 0.513,4.965 0.361,4.326 0.239,3.535 0.152,2.626 0.109,2.169 0.074,1.678 0.048,1.161 0.026,0.787 0.013,0.4 0,0" /></g></g></g></g><g
           id="g168"><g
             id="g170" /><g
             id="g182"><g
               style="opacity:0.19999701"
               id="g180"
               clip-path="url(#clipPath174)"><g
                 id="g178"
                 transform="translate(18.861,12.2187)"><path
                   id="path176"
                   style="fill:#3b2416;fill-opacity:1;fill-rule:nonzero;stroke:none"
                   d="M 0,0 C 0,0 2.777,-3.735 4.909,-2.211 L 4.137,-3.233 3.281,-3.577 1.645,-3.309 0.701,-2.662 0.284,-1.546 Z" /></g></g></g></g><g
           transform="translate(50.6497,8.5595)"
           id="g184"><path
             id="path186"
             style="fill:#73c5d2;fill-opacity:1;fill-rule:nonzero;stroke:none"
             d="m 0,0 v -6.496 h -1.254 v 2.772 H -4.2 V -6.496 H -5.463 V 0 H -4.2 v -2.626 h 2.946 V 0 Z" /></g><path
           id="path188"
           style="fill:#73c5d2;fill-opacity:1;fill-rule:nonzero;stroke:none"
           d="m 52.004,8.559 h 1.263 V 2.063 h -1.263 z" /><g
           transform="translate(55.8833,5.3479)"
           id="g190"><path
             id="path192"
             style="fill:#73c5d2;fill-opacity:1;fill-rule:nonzero;stroke:none"
             d="m 0,0 h 1.583 c 0.116,0 0.224,0.027 0.325,0.082 0.1,0.055 0.187,0.13 0.261,0.224 C 2.242,0.401 2.3,0.512 2.342,0.64 2.385,0.769 2.406,0.906 2.406,1.052 2.406,1.205 2.382,1.345 2.333,1.473 2.284,1.601 2.219,1.712 2.137,1.807 2.054,1.902 1.96,1.975 1.853,2.027 1.746,2.078 1.638,2.104 1.528,2.104 H 0 Z M -1.263,-3.285 V 3.212 H 1.61 C 1.909,3.212 2.185,3.149 2.438,3.024 2.692,2.899 2.91,2.734 3.093,2.53 3.276,2.325 3.419,2.094 3.523,1.835 3.626,1.575 3.678,1.314 3.678,1.052 3.678,0.631 3.573,0.248 3.363,-0.096 3.152,-0.441 2.867,-0.689 2.507,-0.842 L 3.989,-3.285 H 2.571 L 1.244,-1.107 H 0 v -2.178 z" /></g><g
           transform="translate(65.2164,3.1701)"
           id="g194"><path
             id="path196"
             style="fill:#73c5d2;fill-opacity:1;fill-rule:nonzero;stroke:none"
             d="m 0,0 v -1.107 h -4.511 v 6.496 h 4.429 V 4.282 H -3.248 V 2.718 h 2.736 V 1.693 h -2.736 l 0,-1.693 z" /></g><g
           transform="translate(69.6631,5.3479)"
           id="g198"><path
             id="path200"
             style="fill:#73c5d2;fill-opacity:1;fill-rule:nonzero;stroke:none"
             d="M 0,0 H 1.464 C 1.696,0 1.889,0.094 2.045,0.284 2.201,0.473 2.278,0.729 2.278,1.052 2.278,1.217 2.254,1.365 2.205,1.496 2.156,1.627 2.092,1.738 2.013,1.83 1.934,1.922 1.841,1.99 1.734,2.036 1.627,2.082 1.519,2.104 1.409,2.104 H 0 Z M -1.263,-3.285 V 3.212 H 1.491 C 1.79,3.212 2.066,3.149 2.32,3.024 2.573,2.899 2.791,2.734 2.974,2.53 3.157,2.325 3.3,2.094 3.404,1.835 3.507,1.575 3.559,1.314 3.559,1.052 3.559,0.778 3.51,0.511 3.413,0.252 3.315,-0.008 3.178,-0.238 3.001,-0.439 2.824,-0.641 2.611,-0.802 2.361,-0.924 2.111,-1.046 1.836,-1.107 1.537,-1.107 H 0 v -2.178 z" /></g><g
           transform="translate(75.3634,5.3479)"
           id="g202"><path
             id="path204"
             style="fill:#73c5d2;fill-opacity:1;fill-rule:nonzero;stroke:none"
             d="m 0,0 h 1.583 c 0.116,0 0.224,0.027 0.325,0.082 0.1,0.055 0.187,0.13 0.261,0.224 C 2.242,0.401 2.3,0.512 2.342,0.64 2.385,0.769 2.406,0.906 2.406,1.052 2.406,1.205 2.382,1.345 2.333,1.473 2.284,1.601 2.219,1.712 2.137,1.807 2.054,1.902 1.96,1.975 1.853,2.027 1.746,2.078 1.638,2.104 1.528,2.104 H 0 Z M -1.263,-3.285 V 3.212 H 1.61 C 1.909,3.212 2.185,3.149 2.438,3.024 2.692,2.899 2.91,2.734 3.093,2.53 3.276,2.325 3.419,2.094 3.523,1.835 3.627,1.575 3.678,1.314 3.678,1.052 3.678,0.631 3.573,0.248 3.363,-0.096 3.152,-0.441 2.867,-0.689 2.507,-0.842 L 3.99,-3.285 H 2.571 L 1.244,-1.107 H 0 v -2.178 z" /></g><g
           transform="translate(81.073,5.3112)"
           id="g206"><path
             id="path208"
             style="fill:#73c5d2;fill-opacity:1;fill-rule:nonzero;stroke:none"
             d="m 0,0 c 0,-0.281 0.043,-0.552 0.128,-0.814 0.085,-0.263 0.209,-0.494 0.371,-0.696 0.161,-0.201 0.36,-0.363 0.595,-0.485 0.234,-0.122 0.501,-0.183 0.8,-0.183 0.305,0 0.575,0.063 0.81,0.188 0.235,0.125 0.433,0.291 0.595,0.499 0.161,0.207 0.283,0.44 0.366,0.7 C 3.747,-0.532 3.788,-0.268 3.788,0 3.788,0.28 3.744,0.552 3.655,0.814 3.567,1.077 3.442,1.308 3.28,1.51 3.119,1.711 2.92,1.871 2.686,1.99 2.451,2.109 2.187,2.169 1.894,2.169 1.589,2.169 1.318,2.106 1.08,1.981 0.842,1.856 0.643,1.691 0.485,1.487 0.326,1.282 0.206,1.051 0.124,0.791 0.041,0.532 0,0.268 0,0 m 1.885,-3.294 c -0.476,0 -0.908,0.093 -1.295,0.279 -0.387,0.186 -0.72,0.433 -0.997,0.741 -0.278,0.308 -0.493,0.661 -0.645,1.057 -0.153,0.396 -0.229,0.802 -0.229,1.217 0,0.433 0.081,0.848 0.243,1.244 0.161,0.397 0.384,0.748 0.667,1.053 0.284,0.305 0.621,0.547 1.012,0.727 0.39,0.18 0.814,0.27 1.271,0.27 0.47,0 0.899,-0.096 1.286,-0.288 C 3.585,2.814 3.916,2.562 4.191,2.251 4.465,1.94 4.679,1.586 4.831,1.19 4.984,0.793 5.06,0.39 5.06,-0.018 5.06,-0.451 4.981,-0.865 4.822,-1.258 4.663,-1.652 4.444,-1.999 4.163,-2.301 3.883,-2.603 3.547,-2.844 3.157,-3.024 2.766,-3.204 2.342,-3.294 1.885,-3.294" /></g><g
           transform="translate(90.9733,6.8575)"
           id="g210"><path
             id="path212"
             style="fill:#73c5d2;fill-opacity:1;fill-rule:nonzero;stroke:none"
             d="m 0,0 c -0.043,0.043 -0.121,0.101 -0.233,0.174 -0.113,0.073 -0.25,0.145 -0.412,0.215 -0.162,0.07 -0.337,0.13 -0.526,0.178 -0.189,0.049 -0.381,0.074 -0.577,0.074 -0.347,0 -0.607,-0.065 -0.777,-0.193 -0.171,-0.128 -0.257,-0.308 -0.257,-0.539 0,-0.135 0.032,-0.246 0.096,-0.334 0.065,-0.089 0.158,-0.167 0.28,-0.234 0.121,-0.067 0.275,-0.128 0.462,-0.183 0.186,-0.055 0.401,-0.113 0.645,-0.174 0.317,-0.085 0.605,-0.177 0.864,-0.274 0.26,-0.098 0.479,-0.22 0.659,-0.366 0.18,-0.147 0.319,-0.322 0.417,-0.526 0.097,-0.205 0.146,-0.456 0.146,-0.755 0,-0.348 -0.066,-0.645 -0.197,-0.892 -0.131,-0.247 -0.308,-0.447 -0.53,-0.6 -0.223,-0.152 -0.48,-0.263 -0.769,-0.334 -0.29,-0.07 -0.593,-0.105 -0.91,-0.105 -0.489,0 -0.97,0.073 -1.446,0.22 -0.476,0.146 -0.903,0.354 -1.281,0.622 l 0.558,1.089 c 0.055,-0.055 0.154,-0.127 0.297,-0.215 0.144,-0.089 0.313,-0.177 0.508,-0.265 0.195,-0.089 0.412,-0.164 0.65,-0.225 0.238,-0.061 0.482,-0.091 0.732,-0.091 0.695,0 1.043,0.223 1.043,0.668 0,0.14 -0.04,0.259 -0.119,0.357 -0.079,0.097 -0.192,0.183 -0.339,0.256 -0.146,0.073 -0.323,0.14 -0.53,0.201 -0.208,0.061 -0.439,0.128 -0.696,0.201 -0.311,0.086 -0.581,0.179 -0.81,0.28 -0.228,0.1 -0.419,0.219 -0.571,0.356 -0.153,0.138 -0.267,0.296 -0.344,0.476 -0.076,0.18 -0.114,0.395 -0.114,0.645 0,0.33 0.061,0.622 0.183,0.879 0.122,0.256 0.291,0.469 0.508,0.64 0.216,0.171 0.468,0.301 0.755,0.389 0.287,0.088 0.595,0.133 0.924,0.133 0.457,0 0.878,-0.072 1.263,-0.215 C -0.064,1.389 0.271,1.22 0.558,1.025 Z" /></g><g
           transform="translate(99.5101,7.4523)"
           id="g214"><path
             id="path216"
             style="fill:#73c5d2;fill-opacity:1;fill-rule:nonzero;stroke:none"
             d="M 0,0 H -2.077 V -5.389 H -3.331 V 0 H -5.408 V 1.107 H 0 Z" /></g><g
           transform="translate(105.7776,8.5595)"
           id="g218"><path
             id="path220"
             style="fill:#73c5d2;fill-opacity:1;fill-rule:nonzero;stroke:none"
             d="m 0,0 v -6.496 h -1.254 v 2.772 H -4.2 V -6.496 H -5.463 V 0 H -4.2 v -2.626 h 2.946 V 0 Z" /></g><g
           transform="translate(111.6427,3.1701)"
           id="g222"><path
             id="path224"
             style="fill:#73c5d2;fill-opacity:1;fill-rule:nonzero;stroke:none"
             d="m 0,0 v -1.107 h -4.511 v 6.496 h 4.429 V 4.282 H -3.248 V 2.718 h 2.735 V 1.693 h -2.735 l 0,-1.693 z" /></g><g
           transform="translate(119.3379,3.1701)"
           id="g226"><path
             id="path228"
             style="fill:#73c5d2;fill-opacity:1;fill-rule:nonzero;stroke:none"
             d="m 0,0 v -1.107 h -4.511 v 6.496 h 4.429 V 4.282 H -3.248 V 2.718 h 2.736 V 1.693 h -2.736 l 0,-1.693 z" /></g><g
           transform="translate(123.6292,4.5701)"
           id="g230"><path
             id="path232"
             style="fill:#73c5d2;fill-opacity:1;fill-rule:nonzero;stroke:none"
             d="M 0,0 -0.897,2.553 -1.83,0 Z m -1.455,3.989 h 1.116 L 2.132,-2.507 H 0.833 L 0.229,-0.888 H -2.04 l -0.595,-1.619 h -1.3 z" /></g><g
           transform="translate(130.2446,6.8575)"
           id="g234"><path
             id="path236"
             style="fill:#73c5d2;fill-opacity:1;fill-rule:nonzero;stroke:none"
             d="m 0,0 c -0.043,0.043 -0.121,0.101 -0.233,0.174 -0.113,0.073 -0.25,0.145 -0.412,0.215 -0.162,0.07 -0.337,0.13 -0.526,0.178 -0.189,0.049 -0.381,0.074 -0.577,0.074 -0.347,0 -0.607,-0.065 -0.777,-0.193 -0.171,-0.128 -0.257,-0.308 -0.257,-0.539 0,-0.135 0.032,-0.246 0.096,-0.334 0.065,-0.089 0.158,-0.167 0.28,-0.234 0.121,-0.067 0.275,-0.128 0.462,-0.183 0.186,-0.055 0.401,-0.113 0.645,-0.174 0.317,-0.085 0.605,-0.177 0.864,-0.274 0.26,-0.098 0.479,-0.22 0.659,-0.366 0.18,-0.147 0.319,-0.322 0.417,-0.526 0.097,-0.205 0.146,-0.456 0.146,-0.755 0,-0.348 -0.066,-0.645 -0.197,-0.892 -0.131,-0.247 -0.308,-0.447 -0.53,-0.6 -0.223,-0.152 -0.479,-0.263 -0.769,-0.334 -0.29,-0.07 -0.593,-0.105 -0.91,-0.105 -0.489,0 -0.97,0.073 -1.446,0.22 -0.476,0.146 -0.903,0.354 -1.281,0.622 l 0.558,1.089 c 0.055,-0.055 0.154,-0.127 0.297,-0.215 0.144,-0.089 0.313,-0.177 0.508,-0.265 0.195,-0.089 0.412,-0.164 0.65,-0.225 0.238,-0.061 0.482,-0.091 0.732,-0.091 0.695,0 1.043,0.223 1.043,0.668 0,0.14 -0.04,0.259 -0.119,0.357 -0.079,0.097 -0.192,0.183 -0.339,0.256 -0.146,0.073 -0.323,0.14 -0.53,0.201 -0.208,0.061 -0.439,0.128 -0.696,0.201 -0.311,0.086 -0.581,0.179 -0.81,0.28 -0.228,0.1 -0.419,0.219 -0.571,0.356 -0.153,0.138 -0.267,0.296 -0.344,0.476 -0.076,0.18 -0.114,0.395 -0.114,0.645 0,0.33 0.061,0.622 0.183,0.879 0.122,0.256 0.291,0.469 0.508,0.64 0.216,0.171 0.468,0.301 0.755,0.389 0.287,0.088 0.595,0.133 0.924,0.133 0.457,0 0.878,-0.072 1.263,-0.215 C -0.064,1.389 0.271,1.22 0.558,1.025 Z" /></g><g
           transform="translate(132.578,8.5595)"
           id="g238"><path
             id="path240"
             style="fill:#73c5d2;fill-opacity:1;fill-rule:nonzero;stroke:none"
             d="M 0,0 1.601,-3.129 3.23,0 H 4.593 L 2.232,-4.227 V -6.496 H 0.979 v 2.287 L -1.372,0 Z" /></g><g
           transform="translate(141.7001,8.5411)"
           id="g242"><path
             id="path244"
             style="fill:#73c5d2;fill-opacity:1;fill-rule:nonzero;stroke:none"
             d="M 0,0 H 1.162 L 1.894,-2.15 2.626,0 H 3.797 L 2.69,-2.955 3.514,-5.032 5.353,0.018 H 6.725 L 4.081,-6.478 H 3.02 L 1.894,-3.751 0.769,-6.478 h -1.062 l -2.626,6.496 h 1.354 l 1.849,-5.05 0.805,2.077 z" /></g><g
           transform="translate(151.8385,4.5701)"
           id="g246"><path
             id="path248"
             style="fill:#73c5d2;fill-opacity:1;fill-rule:nonzero;stroke:none"
             d="M 0,0 -0.897,2.553 -1.83,0 Z m -1.455,3.989 h 1.116 L 2.132,-2.507 H 0.833 L 0.229,-0.888 H -2.04 l -0.595,-1.619 h -1.3 z" /></g><g
           transform="translate(154.6567,8.5595)"
           id="g250"><path
             id="path252"
             style="fill:#73c5d2;fill-opacity:1;fill-rule:nonzero;stroke:none"
             d="M 0,0 1.601,-3.129 3.23,0 H 4.593 L 2.232,-4.227 V -6.496 H 0.979 v 2.287 L -1.372,0 Z" /></g><g
           transform="translate(50.3182,22.7801)"
           id="g254"><path
             id="path256"
             style="fill:#1a1a1a;fill-opacity:1;fill-rule:nonzero;stroke:none"
             d="m 0,0 c -0.784,-0.435 -1.249,-0.609 -1.249,-1.568 0,-4.411 1.104,-4.963 3.484,-4.963 2.09,0 4.209,0.813 4.209,3.077 0,2.061 -2.555,4.964 -3.338,4.964 -0.378,0 -0.9,-0.32 -1.219,-0.494 z m 3.019,5.515 c 0.841,0.61 2.06,2.033 2.06,3.223 0,1.393 -1.219,1.741 -2.322,1.741 -2.873,0 -4.18,-1.248 -4.18,-5.777 0,-0.58 -0.058,-1.334 0.755,-1.334 0.348,0 1.103,0.319 1.567,0.638 z m -7.083,-15.762 c -0.726,0 -1.597,-0.552 -1.597,10.334 0,14.34 1.51,13.817 2.003,13.817 H 3.86 c 5.138,0 5.922,-2.38 5.922,-4.238 0,-3.193 -3.309,-5.051 -3.309,-5.95 0,-1.016 4.674,-3.367 4.674,-8.36 0,-2.846 -1.713,-5.603 -6.474,-5.603 z" /></g><g
           transform="translate(64.0815,35.2911)"
           id="g258"><path
             id="path260"
             style="fill:#1a1a1a;fill-opacity:1;fill-rule:nonzero;stroke:none"
             d="M 0,0 C 0,1.248 1.074,2.003 2.235,2.003 3.396,2.003 4.47,1.248 4.47,0 4.47,-1.248 3.396,-1.916 2.235,-1.916 1.074,-1.916 0,-1.248 0,0 m 1.219,-22.758 c -1.422,0 -1.538,-0.61 -1.538,9.608 0,9.928 0.464,8.97 1.422,8.97 H 2.7 c 1.219,0 1.248,-0.087 1.248,-0.435 0,-1.074 -0.348,-2.148 -0.348,-5.313 0,-7.314 1.132,-11.813 1.132,-12.075 0,-0.928 -0.871,-0.755 -1.539,-0.755 z" /></g><g
           transform="translate(72.646,12.5334)"
           id="g262"><path
             id="path264"
             style="fill:#1a1a1a;fill-opacity:1;fill-rule:nonzero;stroke:none"
             d="m 0,0 c -1.016,0 -0.9,9.724 -0.9,10.392 0,1.364 -0.116,14.369 1.19,14.369 h 2.758 c 0.319,0 1.19,0.087 1.19,-0.552 0,-0.174 -1.219,-4.354 -1.219,-11.582 C 3.019,4.644 4.122,0.726 4.122,0.349 4.122,-0.145 3.367,0 3.048,0 Z" /></g><g
           transform="translate(80.1079,12.5334)"
           id="g266"><path
             id="path268"
             style="fill:#1a1a1a;fill-opacity:1;fill-rule:nonzero;stroke:none"
             d="m 0,0 c -1.016,0 -0.9,9.724 -0.9,10.392 0,1.364 -0.116,14.369 1.19,14.369 h 2.758 c 0.319,0 1.19,0.087 1.19,-0.552 0,-0.174 -1.219,-4.354 -1.219,-11.582 C 3.019,4.644 4.122,0.726 4.122,0.349 4.122,-0.145 3.367,0 3.048,0 Z" /></g><g
           transform="translate(85.8272,15.7549)"
           id="g270"><path
             id="path272"
             style="fill:#1a1a1a;fill-opacity:1;fill-rule:nonzero;stroke:none"
             d="m 0,0 c 0,0.349 0.059,1.191 0.842,1.191 3.338,0 4.209,1.073 4.209,1.452 C 5.051,3.861 0,5.922 0,13.992 c 0,1.306 -0.029,1.364 1.103,1.364 h 2.38 c 0.378,0 1.017,0.087 1.017,-0.522 0,-0.407 -0.261,-1.307 -0.261,-2.178 0,-3.395 2.844,-6.589 3.424,-6.589 1.161,0 1.946,3.484 1.946,5.719 0,1.451 -0.32,2.67 -0.32,3.135 0,0.522 0.725,0.435 1.045,0.435 h 2.584 C 13.469,15.269 13.382,14.34 13.382,13.092 13.643,4.587 7.083,-3.656 0.697,-3.656 0.029,-3.656 0,-3.222 0,-2.554 Z" /></g><g
           transform="translate(98.6314,15.32)"
           id="g274"><path
             id="path276"
             style="fill:#1a1a1a;fill-opacity:1;fill-rule:nonzero;stroke:none"
             d="m 0,0 c 0,1.742 1.451,3.164 3.193,3.164 1.829,0 3.309,-1.394 3.309,-3.194 0,-1.798 -1.48,-3.192 -3.28,-3.192 C 1.422,-3.222 0,-1.77 0,0" /></g><g
           transform="translate(106.7031,20.8933)"
           id="g278"><path
             id="path280"
             style="fill:#1a1a1a;fill-opacity:1;fill-rule:nonzero;stroke:none"
             d="m 0,0 c 0,4.993 2.525,10.653 8.244,10.653 2.525,0 4.354,-1.364 4.354,-3.019 0,-0.871 -0.639,-2.554 -1.713,-2.554 -0.667,0 -0.551,2.148 -2.903,2.148 -2.99,0 -4.063,-3.948 -4.063,-6.386 0,-2.816 1.335,-5.167 4.092,-5.167 3.136,0 3.861,2.874 4.122,2.874 0.146,0 0.436,-0.523 0.436,-1.713 0,-3.484 -2.293,-5.631 -5.719,-5.631 C 2.031,-8.795 0,-4.238 0,0" /></g><g
           transform="translate(131.844,22.5768)"
           id="g282"><path
             id="path284"
             style="fill:#1a1a1a;fill-opacity:1;fill-rule:nonzero;stroke:none"
             d="M 0,0 C 0,2.293 -0.813,5.544 -3.687,5.544 -6.56,5.544 -7.373,2.293 -7.373,0 c 0,-2.322 0.754,-5.631 3.686,-5.631 C -0.755,-5.631 0,-2.322 0,0 m -10.972,-0.726 c 0,4.674 2.234,9.696 7.285,9.696 5.051,0 7.286,-5.022 7.286,-9.696 0,-6.822 -3.948,-9.752 -7.286,-9.752 -3.338,0 -7.285,2.93 -7.285,9.752" /></g><g
           transform="translate(138.9886,12.5334)"
           id="g286"><path
             id="path288"
             style="fill:#1a1a1a;fill-opacity:1;fill-rule:nonzero;stroke:none"
             d="m 0,0 c -0.987,0 -1.597,-0.929 -1.597,7.663 0,12.221 -0.377,11.844 3.571,11.844 0.609,0 1.248,-0.029 1.248,-0.465 0,-0.348 -0.348,-0.9 -0.348,-1.306 0,-0.29 0.29,-0.494 0.58,-0.494 0.348,0 0.755,0.349 1.394,0.668 0.638,0.349 1.509,0.668 2.728,0.668 1.422,0 2.351,-1.336 3.077,-1.336 0.406,0 0.987,0.088 1.713,0.523 0.725,0.406 1.625,0.813 2.67,0.813 5.341,0 5.225,-6.996 5.225,-10.711 C 20.261,-0.987 19.158,0 18.317,0 h -1.975 c -0.29,0 -1.103,-0.058 -1.103,0.464 0,0.523 1.103,3.716 1.103,8.564 0,5.544 -1.974,6.124 -3.076,6.124 -1.017,0 -1.975,0.088 -1.975,-4.702 C 11.291,0.03 11.147,0 10.218,0 H 7.605 C 7.053,0 6.589,-0.116 6.589,0.291 c 0,0.435 1.103,6.269 1.103,9.027 0,1.742 0,5.834 -2.38,5.834 -2.177,0 -2.99,-2.67 -2.99,-6.995 0,-5.835 0.813,-6.937 0.813,-7.75 C 3.135,-0.087 2.612,0 2.293,0 Z" /></g></g></g></g></svg>